HIERARCHY
ROOT Hips
{
	OFFSET -3.958830 18.904000 13.208200
	CHANNELS 6 Xposition Yposition Zposition Zrotation Yrotation Xrotation 
	JOINT LHipJoint
	{
		OFFSET 0.000000 0.000000 0.000000
		CHANNELS 3 Zrotation Yrotation Xrotation
		JOINT LeftUpLeg
		{
			OFFSET 1.800000 -1.400000 0.085000
			CHANNELS 3 Zrotation Yrotation Xrotation
			JOINT LeftLeg
			{
				OFFSET 2.215000 -6.000000 0.000000
				CHANNELS 3 Zrotation Yrotation Xrotation
				JOINT LeftFoot
				{
					OFFSET 2.500000 -6.900000 0.000000
					CHANNELS 3 Zrotation Yrotation Xrotation
					JOINT LeftToeBase
					{
						OFFSET 0.200000 -0.500000 1.950000
						CHANNELS 3 Zrotation Yrotation Xrotation
						End Site
						{
							OFFSET 0.000000 0.000000 0.000000
						}
					}
				}
			}
		}
	}
	JOINT RHipJoint
	{
		OFFSET 0.000000 0.000000 0.000000
		CHANNELS 3 Zrotation Yrotation Xrotation
		JOINT RightUpLeg
		{
			OFFSET -1.800000 -1.400000 0.085000
			CHANNELS 3 Zrotation Yrotation Xrotation
			JOINT RightLeg
			{
				OFFSET -2.215000 -6.000000 0.000000
				CHANNELS 3 Zrotation Yrotation Xrotation
				JOINT RightFoot
				{
					OFFSET -2.500000 -6.900000 0.000000
					CHANNELS 3 Zrotation Yrotation Xrotation
					JOINT RightToeBase
					{
						OFFSET -0.200000 -0.500000 1.950000
						CHANNELS 3 Zrotation Yrotation Xrotation
						End Site
						{
							OFFSET 0.000000 0.000000 0.000000
						}
					}
				}
			}
		}
	}
	JOINT LowerBack
	{
		OFFSET 0.000000 0.000000 0.000000
		CHANNELS 3 Zrotation Yrotation Xrotation
		JOINT Spine
		{
			OFFSET -0.087000 1.940000 -0.288900
			CHANNELS 3 Zrotation Yrotation Xrotation
			JOINT Spine1
			{
				OFFSET 0.000000 1.950000 0.060000
				CHANNELS 3 Zrotation Yrotation Xrotation
				JOINT Neck
				{
					OFFSET 0.000000 0.000000 0.000000
					CHANNELS 3 Zrotation Yrotation Xrotation
					JOINT Neck1
					{
						OFFSET 0.000000 1.600000 0.340000
						CHANNELS 3 Zrotation Yrotation Xrotation
						JOINT Head
						{
							OFFSET 0.000000 1.667000 -0.240000
							CHANNELS 3 Zrotation Yrotation Xrotation
							End Site
							{
								OFFSET 0.000000 0.000000 0.000000
							}
						}
					}
				}
				JOINT LeftShoulder
				{
					OFFSET 0.000000 0.000000 0.000000
					CHANNELS 3 Zrotation Yrotation Xrotation
					JOINT LeftArm
					{
						OFFSET 2.700000 1.550000 -0.730000
						CHANNELS 3 Zrotation Yrotation Xrotation
						JOINT LeftForeArm
						{
							OFFSET 5.450000 0.000000 0.000000
							CHANNELS 3 Zrotation Yrotation Xrotation
							JOINT LeftHand
							{
								OFFSET 3.450000 0.000000 0.000000
								CHANNELS 3 Zrotation Yrotation Xrotation
								JOINT LeftHandIndex1
								{
									OFFSET 0.750000 0.000000 0.000000
									CHANNELS 3 Zrotation Yrotation Xrotation
									End Site
									{
										OFFSET 0.000000 0.000000 0.000000
									}
								}
							}
						}
					}
				}
				JOINT RightShoulder
				{
					OFFSET 0.000000 0.000000 0.000000
					CHANNELS 3 Zrotation Yrotation Xrotation
					JOINT RightArm
					{
						OFFSET -2.700000 1.550000 -0.730000
						CHANNELS 3 Zrotation Yrotation Xrotation
						JOINT RightForeArm
						{
							OFFSET -5.450000 0.000000 0.000000
							CHANNELS 3 Zrotation Yrotation Xrotation
							JOINT RightHand
							{
								OFFSET -3.450000 0.000000 0.000000
								CHANNELS 3 Zrotation Yrotation Xrotation
								JOINT RightHandIndex1
								{
									OFFSET -0.750000 0.000000 0.000000
									CHANNELS 3 Zrotation Yrotation Xrotation
									End Site
									{
										OFFSET 0.000000 0.000000 0.000000
									}
								}
							}
						}
					}
				}
			}
		}
	}
}
MOTION
Frames: 7
Frame Time: 0.016667
1.060520 16.598500 -8.506520 -1.513656 -3.885859 2.545264 -15.003514 13.378640 2.680440 6.081204 -1.225788 -13.368549 -5.031363 5.292784 12.708078 0.011707 3.457239 3.370611 -0.058600 -0.190440 -0.027730 18.304289 -11.230358 2.820848 -8.307661 0.473646 -11.966688 8.729772 -4.868184 8.827588 -0.083659 -3.294583 3.218002 -0.171080 0.137330 0.126620 -3.799840 -1.079568 -7.118709 9.654552 0.370880 3.805036 7.249133 -0.734712 4.944067 -0.539330 -3.095898 -11.439518 -7.488454 0.408531 35.811158 0.089950 -1.135950 0.319480 -12.638017 -8.484493 6.772149 -71.396986 -2.644820 -7.013860 -26.429631 -22.830056 2.070342 -3.652976 3.193350 0.139530 0.027010 0.001770 0.046710 14.370831 11.820295 6.471198 55.269059 2.764094 -8.072162 6.564370 23.333270 -0.024479 2.589412 -1.300831 -0.029450 -0.012640 0.047730 0.025880 
1.066320 16.593280 -8.512380 -1.518420 -3.777871 2.407665 -15.003620 13.436114 2.697854 5.962755 -1.287159 -13.826266 -4.701583 5.316703 13.527715 0.011411 3.452023 3.357261 -0.056590 -0.192580 -0.019300 18.285650 -11.282441 2.801448 -8.217719 0.540026 -12.427513 8.345073 -4.930672 9.820824 -0.077080 -3.254703 3.221757 -0.180080 0.123080 0.133240 -3.770878 -1.094042 -7.145682 9.650880 0.519736 4.266170 8.276419 -0.668074 4.983389 -0.701232 -2.905515 -11.781993 -7.180964 0.734497 36.570543 0.248430 -0.647240 0.507910 -11.559542 -8.663771 7.101767 -71.283916 -2.197123 -7.430714 -29.905747 -23.501196 2.687327 -3.625656 3.239345 0.152300 0.018160 0.015140 0.041910 13.692491 11.875015 6.508511 54.836087 2.745462 -8.236927 6.484418 23.714305 0.011659 2.589506 -1.299990 -0.022930 -0.026020 0.045960 0.020140 
1.076500 16.577000 -8.511380 -1.350446 -3.304851 2.204019 -15.020210 13.506111 2.717969 5.792583 -1.409789 -14.640659 -4.445255 5.513237 15.305687 0.008038 3.538766 3.314552 -0.060680 -0.200590 -0.011030 18.250630 -11.341740 2.761613 -8.186511 0.594592 -12.888641 7.677777 -4.972043 11.060327 -0.062830 -3.216140 3.229021 -0.183780 0.122440 0.129000 -3.699967 -1.130827 -7.156929 9.254982 0.667107 4.853598 10.411152 -0.746692 5.175525 -1.216750 -2.548808 -12.155487 -6.465778 1.096297 37.018378 0.527320 0.055590 0.633300 -9.042978 -8.527572 7.563229 -70.522857 -1.412236 -7.785452 -38.078513 -24.097471 4.153348 -3.582621 3.320019 0.165820 0.016540 0.018900 0.037360 12.342882 11.448410 6.266166 53.609756 3.109773 -8.043900 6.666587 23.496072 0.122582 2.593544 -1.287589 -0.033380 -0.022020 0.047080 0.010490 
1.092500 16.567040 -8.505400 -1.342629 -2.711002 2.084184 -15.027912 13.597567 2.755436 5.717675 -1.488886 -15.116949 -4.322338 5.670255 16.491428 0.026518 3.620843 3.285407 -0.074980 -0.217570 -0.012970 18.226173 -11.393359 2.694696 -7.901322 0.675280 -13.618941 6.681805 -5.019914 12.998322 -0.038105 -3.175282 3.244191 -0.197460 0.125750 0.122410 -3.660563 -1.233974 -7.158711 9.498786 0.671029 5.349692 12.706389 -0.936621 5.173090 -1.867758 -2.556669 -12.457328 -6.554338 0.999100 37.016843 0.260250 0.241690 1.120950 -6.610016 -7.818202 7.869980 -69.109634 -0.310287 -7.906473 -46.834102 -24.299537 5.861290 -3.527676 3.399968 0.164220 0.019100 0.016040 0.036200 11.299728 10.612952 6.144141 52.535140 2.212380 -8.890901 6.134109 25.526904 0.140236 2.575716 -1.291497 -0.038210 -0.020780 0.045500 0.010290 
1.127010 16.547390 -8.498320 -1.349756 -1.627769 1.899870 -15.010679 13.630053 2.783224 5.545467 -1.562460 -15.397851 -4.122896 5.751648 17.458784 0.046946 3.654322 3.276682 -0.077630 -0.214530 -0.015820 18.221731 -11.483454 2.662163 -8.009783 0.759755 -14.348709 6.401747 -5.260238 15.063952 -0.032194 -3.231956 3.225548 -0.200800 0.121470 0.102520 -3.699577 -1.154064 -7.193102 10.012342 0.605137 5.876343 14.553642 -1.166483 5.206846 -2.504174 -2.188080 -13.070707 -5.817411 0.271961 37.142254 0.583420 -0.309970 1.500630 -4.127841 -8.132578 8.493721 -66.581799 1.208934 -8.151703 -56.834265 -24.291937 7.765429 -3.437331 3.483921 0.164620 0.009490 0.017700 0.044910 10.060658 10.554285 6.155115 51.196460 2.042092 -8.790327 5.670322 25.181638 0.143366 2.588725 -1.285553 -0.042510 -0.015380 0.028720 0.016570 
1.155160 16.536450 -8.497100 -1.189780 -0.928005 1.724862 -15.001476 13.671450 2.815207 5.158031 -1.661577 -15.742292 -3.697735 5.724055 18.332442 0.051805 3.662555 3.259739 -0.068480 -0.198420 -0.009260 18.212651 -11.549054 2.631394 -8.208230 0.877045 -15.132187 6.029773 -5.468027 17.047358 -0.035952 -3.297478 3.187649 -0.196870 0.103660 0.108980 -3.715150 -1.131771 -7.226200 10.490683 0.425318 6.649000 15.884338 -1.325786 4.898836 -2.985010 -1.759641 -13.163853 -4.987709 -0.650259 37.086728 0.447860 -0.871650 0.960070 -2.772541 -7.637652 8.710217 -62.950220 3.130317 -8.125337 -64.946977 -23.366742 8.965759 -3.387567 3.544183 0.161640 0.002820 0.030040 0.039370 9.592708 9.813151 5.746368 49.567554 2.291093 -8.424529 5.747013 24.671824 0.245520 2.597344 -1.275278 -0.026230 -0.022970 0.025970 0.017840 
1.170210 16.519520 -8.503240 -0.967281 -0.033675 1.684118 -14.998558 13.667249 2.840901 4.634272 -1.767650 -16.052856 -3.181400 5.533008 18.459645 0.042904 3.599372 3.284598 -0.094220 -0.231920 -0.023530 18.202637 -11.594209 2.639111 -8.474842 1.009919 -15.891133 6.233651 -5.749947 18.434122 -0.028635 -3.400628 3.139952 -0.215240 0.115220 0.116850 -3.726230 -1.050808 -7.276186 10.702725 0.403739 7.258208 17.049473 -1.329552 4.643388 -3.449538 -0.915916 -13.520215 -3.324303 -1.703372 36.808299 0.333420 -1.357390 1.726210 -1.853274 -7.859566 9.204254 -58.817484 5.253165 -8.182423 -72.133158 -24.036485 10.920819 -3.362307 3.606077 0.150510 0.017350 0.017170 0.030800 9.476319 9.388509 5.538685 48.244118 1.975251 -8.339277 5.399152 24.478721 0.256144 2.598037 -1.273648 -0.028340 -0.033580 0.040810 0.018540 
